PathFileType	4	(X/Y/Z)	./resultDataOpenSim/trcMotMarkerGrf/sub10/qtm-13-03.trc
DataRate	CameraRate	NumFrames	NumMarkers	Units	OrigDataRate	OrigDataStartFrame	OrigNumFrames
250.000000	250.000000	10	24	m	250.000000	183	486
Frame#	Time	L.Toe.Tip			R.Toe.Tip			L.Ankle.Lat			R.Ankle.Lat			L.Ankle.Med			R.Ankle.Med			L.Heel			R.Heel			L.Knee.Lat			R.Knee.Lat			L.Knee.Med			R.Knee.Med			L.Thigh.Upper			R.Thigh.Upper			L.ASIS			R.ASIS			V.Sacral			L.Acromium			R.Acromium			C7			L.Elbow			R.Elbow			L.Wrist.Lat			R.Wrist.Lat
		X1	Y1	Z1	X2	Y2	Z2	X3	Y3	Z3	X4	Y4	Z4	X5	Y5	Z5	X6	Y6	Z6	X7	Y7	Z7	X8	Y8	Z8	X9	Y9	Z9	X10	Y10	Z10	X11	Y11	Z11	X12	Y12	Z12	X13	Y13	Z13	X14	Y14	Z14	X15	Y15	Z15	X16	Y16	Z16	X17	Y17	Z17	X18	Y18	Z18	X19	Y19	Z19	X20	Y20	Z20	X21	Y21	Z21	X22	Y22	Z22	X23	Y23	Z23	X24	Y24	Z24

183	0.728	-0.069299542	-0.0083406398	-0.020916595	-0.59860402	0.12516504	0.15934414	-0.20144286	0.017027761	-0.058938317	-0.6247663	0.2691121	0.15145948	-0.20171127	0.040533891	0.024207314	-0.58323695	0.23445136	0.081107551	-0.27061218	-0.012724734	-0.022994615	-0.65886646	0.28893583	0.089042813	-0.1331984	0.39681281	-0.092364522	-0.28573515	0.39039965	0.21014761	-0.12519488	0.38364619	0.026994423	-0.22638729	0.3642451	0.087364398	-0.23961309	0.769013	-0.16497865	-0.34577916	0.77396876	0.2078199	-0.21071048	0.87413177	-0.078967016	-0.26585403	0.87549487	0.14530424	-0.43343101	0.88285181	-0.01771204	-0.29316372	1.3373753	-0.15510577	-0.32432656	1.3505702	0.160024	-0.38211305	1.369724	-0.011358544	-0.4962676	1.0652905	-0.21702042	-0.41469183	1.0238242	0.28743319	-0.43381318	0.83697113	-0.27988292	-0.19178317	0.93053671	0.35985031
184	0.732	-0.069298262	-0.0083766041	-0.020873664	-0.58154283	0.12924079	0.16111122	-0.201378	0.01692047	-0.058799446	-0.60881953	0.27273452	0.15200201	-0.20213878	0.040200584	0.024530581	-0.56764879	0.2376007	0.081398351	-0.27068023	-0.012763767	-0.022806142	-0.64353442	0.29184132	0.089411108	-0.13126516	0.39552763	-0.092516531	-0.2693903	0.39216321	0.21035561	-0.12253136	0.3821093	0.027602713	-0.21196669	0.36662656	0.086696441	-0.23568184	0.76849469	-0.1651579	-0.34018857	0.77361135	0.20721945	-0.20619057	0.87477097	-0.080283257	-0.26130168	0.87556625	0.14567558	-0.42940788	0.88213612	-0.017417774	-0.2852002	1.3369298	-0.15539375	-0.31708333	1.350338	0.15936605	-0.37513649	1.3698364	-0.01182607	-0.48680204	1.0635549	-0.21823279	-0.4100645	1.0245997	0.28722417	-0.42325553	0.83599296	-0.28254922	-0.18866904	0.93011112	0.36244833
185	0.736	-0.069306289	-0.0084118651	-0.020808508	-0.56414584	0.13294532	0.16263207	-0.20135184	0.016779933	-0.058692189	-0.59308147	0.27587325	0.15250857	-0.20252965	0.039854603	0.024754704	-0.55193436	0.24059221	0.081738403	-0.270743	-0.012841294	-0.022609911	-0.62831171	0.29434334	0.089952501	-0.12939923	0.39414504	-0.092462055	-0.25303434	0.39418319	0.21054897	-0.12049251	0.38073023	0.028338366	-0.19743416	0.36921828	0.086080043	-0.23164914	0.76812626	-0.16526771	-0.33482659	0.77326857	0.20659506	-0.20175789	0.8755196	-0.081652844	-0.25683807	0.87569583	0.1462256	-0.42541099	0.88121259	-0.016927745	-0.2771976	1.3364878	-0.15565353	-0.30996012	1.3501356	0.15871969	-0.36830337	1.369914	-0.012401214	-0.4772449	1.0619021	-0.21942173	-0.40535372	1.0253365	0.28689911	-0.41247744	0.83511321	-0.28527519	-0.18566987	0.92975744	0.36517875
186	0.74	-0.069320766	-0.0084445697	-0.020727152	-0.54649103	0.1362684	0.1639023	-0.20132767	0.016634466	-0.05861349	-0.5773857	0.27847841	0.15297536	-0.20270752	0.03954053	0.024950511	-0.53608184	0.24336293	0.082103476	-0.27077501	-0.01293438	-0.022371096	-0.61307885	0.29639926	0.090607567	-0.1274631	0.39268478	-0.092182961	-0.2367573	0.39645842	0.21068786	-0.11906253	0.37951126	0.029110086	-0.18270691	0.37207774	0.085469581	-0.22753073	0.76794335	-0.16533005	-0.32967367	0.77290416	0.20596126	-0.1973657	0.87635574	-0.083025746	-0.25246302	0.87586702	0.14692503	-0.42155881	0.8800227	-0.016195737	-0.26918412	1.336051	-0.15587692	-0.30298169	1.3499771	0.15809066	-0.36159502	1.3699797	-0.012982018	-0.4676217	1.0603458	-0.22073361	-0.40060097	1.0260511	0.28646776	-0.40144366	0.83433334	-0.28808726	-0.18279844	0.92948157	0.36803095
187	0.744	-0.069348251	-0.0084670509	-0.020638494	-0.52865456	0.1391879	0.16493466	-0.20127632	0.016510323	-0.058551808	-0.56157316	0.28056219	0.15344567	-0.20270458	0.039287006	0.025136141	-0.52011974	0.24584608	0.082484735	-0.2707727	-0.013020989	-0.022112337	-0.59774871	0.29800828	0.091336364	-0.12528373	0.39120512	-0.091687415	-0.22062158	0.39895602	0.2107314	-0.1181376	0.37845603	0.029876057	-0.16775816	0.37522818	0.084827522	-0.22337654	0.76795934	-0.16538675	-0.32468262	0.77250359	0.20532007	-0.19296818	0.87726932	-0.084364381	-0.24816526	0.87606667	0.14774133	-0.41773563	0.87874796	-0.015209376	-0.26117754	1.3356306	-0.15604622	-0.29615704	1.3498879	0.15747291	-0.35498945	1.3700522	-0.013446156	-0.45801044	1.0588935	-0.22219218	-0.3958456	1.0267912	0.28596127	-0.39014473	0.83365902	-0.29097559	-0.18001418	0.92928009	0.37097254
188	0.748	-0.069392156	-0.008475242	-0.020547258	-0.51069081	0.14167873	0.16576156	-0.20118836	0.016419751	-0.058483515	-0.54562832	0.28214676	0.15396447	-0.20264962	0.039100659	0.025286514	-0.5040818	0.24799064	0.082885975	-0.27077539	-0.013071623	-0.021961642	-0.58235954	0.29918815	0.092124527	-0.1227691	0.38980587	-0.091012692	-0.20464249	0.40163264	0.21066893	-0.11756066	0.37756143	0.030621222	-0.15266731	0.37863996	0.084125526	-0.21921841	0.76816836	-0.16547744	-0.3197815	0.77207865	0.20466685	-0.18855782	0.87823041	-0.085667199	-0.24391674	0.8762876	0.14864681	-0.41373534	0.87771106	-0.014069945	-0.25318616	1.3352356	-0.15615233	-0.28948567	1.3498905	0.15686471	-0.34845428	1.3701408	-0.013821131	-0.44846471	1.0575394	-0.22376663	-0.39108504	1.0275917	0.28540749	-0.37858667	0.83309695	-0.29391971	-0.17727417	0.92915136	0.37397807
189	0.752	-0.069447361	-0.0084791501	-0.020455339	-0.49261722	0.14372761	0.16642624	-0.20107959	0.016363408	-0.058393414	-0.52962048	0.28324431	0.15456216	-0.20262255	0.038972109	0.025393326	-0.48797777	0.2497781	0.083332885	-0.2708339	-0.013068264	-0.022046246	-0.56698675	0.29993944	0.092967867	-0.11997874	0.38860175	-0.090237815	-0.1888475	0.40448908	0.2105222	-0.11717601	0.3768137	0.031331265	-0.13753868	0.38227582	0.083352605	-0.21504122	0.76855336	-0.16561533	-0.31489272	0.77163986	0.2040093	-0.18417582	0.87917882	-0.086962862	-0.23968285	0.87652362	0.14961699	-0.40943106	0.87713371	-0.012959624	-0.24522565	1.3348639	-0.1562043	-0.2829761	1.3499911	0.15627913	-0.34196041	1.3702571	-0.01425111	-0.43897012	1.0562604	-0.2254843	-0.38629888	1.0284638	0.28482309	-0.3668026	0.83264886	-0.29689702	-0.17458699	0.92910228	0.37704895
190	0.756	-0.069505043	-0.0084950231	-0.02036513	-0.4744032	0.1453427	0.16697311	-0.20098365	0.016335793	-0.058295922	-0.51359752	0.28387388	0.1552436	-0.20262518	0.038885731	0.025475421	-0.47180315	0.25121783	0.0838435	-0.27094932	-0.013035127	-0.022307187	-0.55164596	0.30024165	0.093864929	-0.11708532	0.38767969	-0.089458161	-0.17331247	0.40757813	0.21032919	-0.11688472	0.37618317	0.031974697	-0.12246523	0.38612829	0.082529113	-0.2108103	0.76908333	-0.16578707	-0.30996222	0.77118525	0.20337623	-0.17986017	0.88005865	-0.088264043	-0.2354321	0.87676168	0.15062183	-0.40473886	0.87702886	-0.012082841	-0.23731825	1.3345077	-0.15621489	-0.276648	1.350179	0.15573927	-0.33550178	1.3704276	-0.014819177	-0.42948602	1.0550301	-0.22736249	-0.38148908	1.029395	0.28420626	-0.35483967	0.83230599	-0.29988789	-0.17199685	0.92914365	0.38020073
191	0.76	-0.069560184	-0.0085245777	-0.020277259	-0.4559863	0.14654833	0.16743664	-0.20092649	0.01631948	-0.058213505	-0.49754337	0.28408169	0.15598914	-0.20260968	0.03882974	0.025562266	-0.45556388	0.25232177	0.084370465	-0.27107742	-0.013017383	-0.022544245	-0.53631185	0.30007574	0.094813899	-0.11427945	0.38707154	-0.088743507	-0.15811986	0.4109469	0.21011336	-0.11662102	0.3756272	0.032529293	-0.10755367	0.39020828	0.081699988	-0.20650559	0.76971106	-0.16597122	-0.30496547	0.77072213	0.20280188	-0.17560513	0.88085219	-0.089545748	-0.23113549	0.87698445	0.15162369	-0.39954215	0.87723144	-0.011573841	-0.22948544	1.334167	-0.15619174	-0.2704975	1.3504428	0.15525609	-0.32909016	1.3706833	-0.015503878	-0.41999302	1.0538318	-0.22933531	-0.37668842	1.0303461	0.28352517	-0.34273481	0.83205454	-0.30287954	-0.1695362	0.92928621	0.38344124
192	0.764	-0.069615392	-0.0085535701	-0.020190696	-0.43733833	0.14736621	0.1678191	-0.20091094	0.016292719	-0.058144267	-0.48142585	0.28391957	0.15676636	-0.20251517	0.038798813	0.025682314	-0.43925901	0.25308397	0.084817194	-0.27118378	-0.01303032	-0.022627202	-0.52097558	0.29943502	0.0957996	-0.11171003	0.38674586	-0.088121861	-0.14329104	0.414585	0.20985973	-0.11627929	0.37510853	0.033037398	-0.092906939	0.39452785	0.080908893	-0.20211548	0.77038256	-0.16616419	-0.29988684	0.77027991	0.20230792	-0.17139001	0.88157059	-0.09077555	-0.2267635	0.87718487	0.15258792	-0.39383695	0.87749602	-0.011394863	-0.22175028	1.3338548	-0.15614706	-0.26446731	1.3507833	0.15481381	-0.32272504	1.3710303	-0.016259932	-0.41049683	1.0526567	-0.23130793	-0.37193447	1.0312613	0.28272957	-0.33051276	0.83189071	-0.30586255	-0.16721197	0.92953744	0.38676215
